<?xml version="1.0" encoding="UTF-8" ?>
<svg version="1.1" width="40" height="40" xmlns="http://www.w3.org/2000/svg" shape-rendering="crispEdges">
<rect x="16" y="0" width="8" height="12" fill="#1A1A1A" />
<rect x="13" y="1" width="3" height="5" fill="#1A1A1A" />
<rect x="24" y="1" width="3" height="5" fill="#1A1A1A" />
<rect x="11" y="2" width="2" height="3" fill="#1A1A1A" />
<rect x="27" y="2" width="2" height="3" fill="#1A1A1A" />
<rect x="9" y="3" width="2" height="2" fill="#1A1A1A" />
<rect x="29" y="3" width="2" height="2" fill="#1A1A1A" />
<rect x="8" y="4" width="1" height="1" fill="#1A1A1A" />
<rect x="31" y="4" width="1" height="1" fill="#1A1A1A" />
<rect x="5" y="5" width="8" height="1" fill="#1F1F1F" />
<rect x="27" y="5" width="8" height="1" fill="#1F1F1F" />
<rect x="5" y="6" width="1" height="29" fill="#1F1F1F" />
<rect x="6" y="6" width="7" height="1" fill="#235C58" />
<rect x="13" y="6" width="1" height="1" fill="#1F1F1F" />
<rect x="14" y="6" width="2" height="1" fill="#1A1A1A" />
<rect x="24" y="6" width="2" height="1" fill="#1A1A1A" />
<rect x="26" y="6" width="1" height="1" fill="#1F1F1F" />
<rect x="27" y="6" width="7" height="1" fill="#235C58" />
<rect x="34" y="6" width="1" height="29" fill="#1F1F1F" />
<rect x="6" y="7" width="1" height="27" fill="#235C58" />
<rect x="7" y="7" width="6" height="1" fill="#2C7873" />
<rect x="13" y="7" width="1" height="2" fill="#235C58" />
<rect x="14" y="7" width="1" height="2" fill="#1F1F1F" />
<rect x="15" y="7" width="1" height="2" fill="#1A1A1A" />
<rect x="24" y="7" width="1" height="2" fill="#1A1A1A" />
<rect x="25" y="7" width="1" height="2" fill="#1F1F1F" />
<rect x="26" y="7" width="1" height="2" fill="#235C58" />
<rect x="27" y="7" width="6" height="1" fill="#2C7873" />
<rect x="33" y="7" width="1" height="27" fill="#235C58" />
<rect x="4" y="8" width="1" height="24" fill="#1A1A1A" />
<rect x="7" y="8" width="1" height="25" fill="#2C7873" />
<rect x="8" y="8" width="4" height="4" fill="#31938D" />
<rect x="12" y="8" width="1" height="2" fill="#2C7873" />
<rect x="27" y="8" width="1" height="2" fill="#2C7873" />
<rect x="28" y="8" width="4" height="4" fill="#31938D" />
<rect x="32" y="8" width="1" height="25" fill="#2C7873" />
<rect x="35" y="8" width="1" height="24" fill="#1A1A1A" />
<rect x="3" y="9" width="1" height="22" fill="#1A1A1A" />
<rect x="13" y="9" width="1" height="5" fill="#2C7873" />
<rect x="14" y="9" width="1" height="3" fill="#235C58" />
<rect x="15" y="9" width="1" height="3" fill="#1F1F1F" />
<rect x="24" y="9" width="1" height="3" fill="#1F1F1F" />
<rect x="25" y="9" width="1" height="3" fill="#235C58" />
<rect x="26" y="9" width="1" height="5" fill="#2C7873" />
<rect x="36" y="9" width="1" height="22" fill="#1A1A1A" />
<rect x="12" y="10" width="1" height="2" fill="#31938D" />
<rect x="27" y="10" width="1" height="2" fill="#31938D" />
<rect x="2" y="11" width="1" height="18" fill="#1A1A1A" />
<rect x="37" y="11" width="1" height="18" fill="#1A1A1A" />
<rect x="8" y="12" width="2" height="20" fill="#31938D" />
<rect x="10" y="12" width="3" height="1" fill="#2C7873" />
<rect x="14" y="12" width="1" height="4" fill="#2C7873" />
<rect x="15" y="12" width="1" height="2" fill="#235C58" />
<rect x="16" y="12" width="1" height="2" fill="#1F1F1F" />
<rect x="17" y="12" width="6" height="2" fill="#1A1A1A" />
<rect x="23" y="12" width="1" height="2" fill="#1F1F1F" />
<rect x="24" y="12" width="1" height="2" fill="#235C58" />
<rect x="25" y="12" width="1" height="4" fill="#2C7873" />
<rect x="27" y="12" width="3" height="1" fill="#2C7873" />
<rect x="30" y="12" width="2" height="20" fill="#31938D" />
<rect x="1" y="13" width="1" height="14" fill="#1A1A1A" />
<rect x="10" y="13" width="1" height="20" fill="#2C7873" />
<rect x="11" y="13" width="2" height="1" fill="#235C58" />
<rect x="27" y="13" width="2" height="1" fill="#235C58" />
<rect x="29" y="13" width="1" height="20" fill="#2C7873" />
<rect x="38" y="13" width="1" height="14" fill="#1A1A1A" />
<rect x="11" y="14" width="1" height="20" fill="#235C58" />
<rect x="12" y="14" width="1" height="21" fill="#1F1F1F" />
<rect x="13" y="14" width="1" height="2" fill="#235C58" />
<rect x="15" y="14" width="1" height="4" fill="#2C7873" />
<rect x="16" y="14" width="1" height="2" fill="#235C58" />
<rect x="17" y="14" width="1" height="2" fill="#1F1F1F" />
<rect x="18" y="14" width="4" height="2" fill="#1A1A1A" />
<rect x="22" y="14" width="1" height="2" fill="#1F1F1F" />
<rect x="23" y="14" width="1" height="2" fill="#235C58" />
<rect x="24" y="14" width="1" height="4" fill="#2C7873" />
<rect x="26" y="14" width="1" height="2" fill="#235C58" />
<rect x="27" y="14" width="1" height="21" fill="#1F1F1F" />
<rect x="28" y="14" width="1" height="20" fill="#235C58" />
<rect x="0" y="16" width="1" height="8" fill="#1A1A1A" />
<rect x="13" y="16" width="1" height="2" fill="#1F1F1F" />
<rect x="14" y="16" width="1" height="2" fill="#235C58" />
<rect x="16" y="16" width="1" height="4" fill="#2C7873" />
<rect x="17" y="16" width="1" height="2" fill="#235C58" />
<rect x="18" y="16" width="1" height="2" fill="#1F1F1F" />
<rect x="19" y="16" width="2" height="2" fill="#1A1A1A" />
<rect x="21" y="16" width="1" height="2" fill="#1F1F1F" />
<rect x="22" y="16" width="1" height="2" fill="#235C58" />
<rect x="23" y="16" width="1" height="4" fill="#2C7873" />
<rect x="25" y="16" width="1" height="2" fill="#235C58" />
<rect x="26" y="16" width="1" height="2" fill="#1F1F1F" />
<rect x="39" y="16" width="1" height="8" fill="#1A1A1A" />
<rect x="13" y="18" width="1" height="21" fill="#1A1A1A" />
<rect x="14" y="18" width="1" height="2" fill="#1F1F1F" />
<rect x="15" y="18" width="1" height="2" fill="#235C58" />
<rect x="17" y="18" width="1" height="4" fill="#2C7873" />
<rect x="18" y="18" width="1" height="1" fill="#235C58" />
<rect x="19" y="18" width="2" height="1" fill="#1F1F1F" />
<rect x="21" y="18" width="1" height="1" fill="#235C58" />
<rect x="22" y="18" width="1" height="4" fill="#2C7873" />
<rect x="24" y="18" width="1" height="2" fill="#235C58" />
<rect x="25" y="18" width="1" height="2" fill="#1F1F1F" />
<rect x="26" y="18" width="1" height="21" fill="#1A1A1A" />
<rect x="18" y="19" width="1" height="5" fill="#2C7873" />
<rect x="19" y="19" width="2" height="1" fill="#235C58" />
<rect x="21" y="19" width="1" height="5" fill="#2C7873" />
<rect x="14" y="20" width="1" height="19" fill="#1A1A1A" />
<rect x="15" y="20" width="1" height="2" fill="#1F1F1F" />
<rect x="16" y="20" width="1" height="2" fill="#235C58" />
<rect x="19" y="20" width="2" height="1" fill="#2C7873" />
<rect x="23" y="20" width="1" height="2" fill="#235C58" />
<rect x="24" y="20" width="1" height="2" fill="#1F1F1F" />
<rect x="25" y="20" width="1" height="19" fill="#1A1A1A" />
<rect x="19" y="21" width="2" height="2" fill="#31938D" />
<rect x="15" y="22" width="1" height="17" fill="#1A1A1A" />
<rect x="16" y="22" width="1" height="3" fill="#1F1F1F" />
<rect x="17" y="22" width="1" height="3" fill="#235C58" />
<rect x="22" y="22" width="1" height="3" fill="#235C58" />
<rect x="23" y="22" width="1" height="3" fill="#1F1F1F" />
<rect x="24" y="22" width="1" height="17" fill="#1A1A1A" />
<rect x="19" y="23" width="2" height="1" fill="#2C7873" />
<rect x="18" y="24" width="4" height="1" fill="#235C58" />
<rect x="16" y="25" width="1" height="1" fill="#1A1A1A" />
<rect x="17" y="25" width="1" height="1" fill="#1F1F1F" />
<rect x="18" y="25" width="4" height="1" fill="#4F1572" />
<rect x="22" y="25" width="1" height="1" fill="#1F1F1F" />
<rect x="23" y="25" width="1" height="1" fill="#1A1A1A" />
<rect x="16" y="26" width="1" height="7" fill="#1F1F1F" />
<rect x="17" y="26" width="1" height="1" fill="#4F1572" />
<rect x="18" y="26" width="4" height="1" fill="#6A1B9A" />
<rect x="22" y="26" width="1" height="2" fill="#4F1572" />
<rect x="23" y="26" width="1" height="2" fill="#1F1F1F" />
<rect x="17" y="27" width="2" height="1" fill="#6A1B9A" />
<rect x="19" y="27" width="2" height="1" fill="#1F1F1F" />
<rect x="21" y="27" width="1" height="1" fill="#4F1572" />
<rect x="17" y="28" width="1" height="4" fill="#6A1B9A" />
<rect x="18" y="28" width="1" height="3" fill="#1F1F1F" />
<rect x="19" y="28" width="1" height="1" fill="#1A1A1A" />
<rect x="20" y="28" width="3" height="1" fill="#1F1F1F" />
<rect x="23" y="28" width="1" height="1" fill="#1A1A1A" />
<rect x="19" y="29" width="1" height="1" fill="#1F1F1F" />
<rect x="20" y="29" width="1" height="1" fill="#4F1572" />
<rect x="21" y="29" width="1" height="4" fill="#6A1B9A" />
<rect x="22" y="29" width="1" height="4" fill="#4F1572" />
<rect x="23" y="29" width="1" height="4" fill="#1F1F1F" />
<rect x="19" y="30" width="1" height="1" fill="#1A1A1A" />
<rect x="20" y="30" width="1" height="2" fill="#1F1F1F" />
<rect x="18" y="31" width="1" height="2" fill="#6A1B9A" />
<rect x="19" y="31" width="1" height="1" fill="#1F1F1F" />
<rect x="8" y="32" width="2" height="1" fill="#2C7873" />
<rect x="17" y="32" width="1" height="1" fill="#4F1572" />
<rect x="19" y="32" width="2" height="1" fill="#6A1B9A" />
<rect x="30" y="32" width="2" height="1" fill="#2C7873" />
<rect x="7" y="33" width="4" height="1" fill="#235C58" />
<rect x="16" y="33" width="1" height="7" fill="#1A1A1A" />
<rect x="17" y="33" width="1" height="1" fill="#1F1F1F" />
<rect x="18" y="33" width="4" height="1" fill="#4F1572" />
<rect x="22" y="33" width="1" height="1" fill="#1F1F1F" />
<rect x="23" y="33" width="1" height="7" fill="#1A1A1A" />
<rect x="29" y="33" width="4" height="1" fill="#235C58" />
<rect x="6" y="34" width="6" height="1" fill="#1F1F1F" />
<rect x="17" y="34" width="1" height="6" fill="#1A1A1A" />
<rect x="18" y="34" width="4" height="1" fill="#1F1F1F" />
<rect x="22" y="34" width="1" height="6" fill="#1A1A1A" />
<rect x="28" y="34" width="6" height="1" fill="#1F1F1F" />
<rect x="8" y="35" width="5" height="1" fill="#1A1A1A" />
<rect x="18" y="35" width="4" height="5" fill="#1A1A1A" />
<rect x="27" y="35" width="5" height="1" fill="#1A1A1A" />
<rect x="9" y="36" width="4" height="1" fill="#1A1A1A" />
<rect x="27" y="36" width="4" height="1" fill="#1A1A1A" />
<rect x="11" y="37" width="2" height="1" fill="#1A1A1A" />
<rect x="27" y="37" width="2" height="1" fill="#1A1A1A" />
</svg>